<svg xmlns="http://www.w3.org/2000/svg" width="24" height="24" viewBox="0 0 24 24">
  <path fill="#4285F4" d="M21.35 12.04c0-.8-.07-1.57-.19-2.31H12v4.37h5.23c-.23 1.13-.9 2.1-1.91 2.74v2.28h3.09c1.81-1.67 2.84-4.13 2.84-7.08z"/>
  <path fill="#34A853" d="M12 21c2.58 0 4.74-.86 6.32-2.31l-3.09-2.28c-.86.58-1.96.92-3.23.92-2.48 0-4.58-1.67-5.33-3.92H3.5v2.35C5.07 18.69 8.29 21 12 21z"/>
  <path fill="#FBBC05" d="M6.67 13.41c-.19-.58-.3-1.19-.3-1.82s.11-1.24.3-1.82V7.42H3.5C2.92 8.79 2.59 10.35 2.59 12s.33 3.21.91 4.58l3.17-2.35z"/>
  <path fill="#EA4335" d="M12 6.58c1.4 0 2.66.48 3.65 1.43l2.74-2.74C16.74 3.67 14.58 2.81 12 2.81c-3.71 0-6.93 2.31-8.5 5.61l3.17 2.35c.75-2.25 2.85-3.92 5.33-3.92z"/>
</svg>